<?xml version="1.0" encoding="UTF-8"?>
<svg width="605px" height="128px" viewBox="0 0 605 128" version="1.1" xmlns="http://www.w3.org/2000/svg" xmlns:xlink="http://www.w3.org/1999/xlink">
    <title>go-cougs</title>
    <defs>
        <path d="M31.92,75.064 C39.672,75.064 48.108,72.708 54.264,68.3 L54.264,46.26 L40.964,46.26 L40.964,60.852 C38.304,62.068 35.644,62.6 32.832,62.6 C23.864,62.6 17.784,56.368 17.784,47.4 C17.784,38.204 23.864,32.2 32.984,32.2 C38.076,32.2 42.256,34.1 45.904,38.128 L55.48,29.464 C50.236,23.156 42.18,19.736 32.224,19.736 C14.972,19.736 2.584,31.212 2.584,47.4 C2.584,63.588 14.972,75.064 31.92,75.064 Z M90.668,75.064 C107.692,75.064 120.232,63.36 120.232,47.4 C120.232,31.44 107.692,19.736 90.668,19.736 C73.644,19.736 61.104,31.44 61.104,47.4 C61.104,63.36 73.644,75.064 90.668,75.064 Z M90.668,62.6 C82.612,62.6 76.304,56.596 76.304,47.4 C76.304,38.204 82.612,32.2 90.668,32.2 C98.724,32.2 105.032,38.204 105.032,47.4 C105.032,56.596 98.724,62.6 90.668,62.6 Z M176.776,75.064 C186.58,75.064 194.484,71.492 199.652,65.032 L190.076,56.368 C186.732,60.396 182.628,62.6 177.536,62.6 C168.796,62.6 162.716,56.52 162.716,47.4 C162.716,38.28 168.796,32.2 177.536,32.2 C182.628,32.2 186.732,34.404 190.076,38.432 L199.652,29.768 C194.484,23.308 186.58,19.736 176.776,19.736 C159.904,19.736 147.516,31.212 147.516,47.4 C147.516,63.588 159.904,75.064 176.776,75.064 Z M232.028,75.064 C249.052,75.064 261.592,63.36 261.592,47.4 C261.592,31.44 249.052,19.736 232.028,19.736 C215.004,19.736 202.464,31.44 202.464,47.4 C202.464,63.36 215.004,75.064 232.028,75.064 Z M232.028,62.6 C223.972,62.6 217.664,56.596 217.664,47.4 C217.664,38.204 223.972,32.2 232.028,32.2 C240.084,32.2 246.392,38.204 246.392,47.4 C246.392,56.596 240.084,62.6 232.028,62.6 Z M294.044,75.064 C309.776,75.064 319.048,66.172 319.048,50.288 L319.048,20.8 L304.228,20.8 L304.228,49.832 C304.228,58.952 300.428,62.6 294.196,62.6 C287.888,62.6 284.088,58.952 284.088,49.832 L284.088,20.8 L269.04,20.8 L269.04,50.288 C269.04,66.172 278.312,75.064 294.044,75.064 Z M355.832,75.064 C363.584,75.064 372.02,72.708 378.176,68.3 L378.176,46.26 L364.876,46.26 L364.876,60.852 C362.216,62.068 359.556,62.6 356.744,62.6 C347.776,62.6 341.696,56.368 341.696,47.4 C341.696,38.204 347.776,32.2 356.896,32.2 C361.988,32.2 366.168,34.1 369.816,38.128 L379.392,29.464 C374.148,23.156 366.092,19.736 356.136,19.736 C338.884,19.736 326.496,31.212 326.496,47.4 C326.496,63.588 338.884,75.064 355.832,75.064 Z M406.448,75.064 C422.256,75.064 430.008,67.16 430.008,57.888 C430.008,38.28 399.836,44.36 399.836,36.228 C399.836,33.568 402.116,31.44 408.424,31.44 C413.06,31.44 418.076,32.808 423.168,35.544 L427.804,24.372 C422.56,21.332 415.416,19.736 408.5,19.736 C392.692,19.736 384.94,27.488 384.94,36.988 C384.94,56.748 415.188,50.592 415.188,59.028 C415.188,61.612 412.756,63.36 406.524,63.36 C400.368,63.36 393.68,61.232 388.968,58.116 L384.028,69.212 C389.044,72.708 397.708,75.064 406.448,75.064 Z M448.78,54.62 L451.668,20.8 L434.492,20.8 L437.304,54.62 L448.78,54.62 Z M443.08,74.684 C448.172,74.684 451.668,71.112 451.668,66.704 C451.668,62.22 448.172,58.876 443.08,58.876 C437.988,58.876 434.416,62.22 434.416,66.704 C434.416,71.112 437.988,74.684 443.08,74.684 Z" id="path-1"></path>
    </defs>
    <g id="Page-1" stroke="none" stroke-width="1" fill="none" fill-rule="evenodd">
        <g id="go-cougs" fill-rule="nonzero">
            <g id="Group_235" transform="translate(0.175000, 0.422000)" fill="#FFFFFF">
                <g id="Group_7" transform="translate(83.991000, 65.665000)">
                    <path d="M29.605,0 C29.605,0 33.516,21.355 19.661,22.086 C6.296,22.783 -0.004,2.641 -0.004,2.641 C-0.004,2.641 3.231,42 21.97,39.409 C43.066,36.494 29.605,0 29.605,0" id="Path_7"></path>
                </g>
                <g id="Group_11" transform="translate(0.824000, 22.983000)">
                    <g id="Group_10">
                        <path d="M11.007,98.364 C11.0142766,98.3627097 11.0217234,98.3627097 11.029,98.364 C26.65,94.8 38.623,76.531 42.129,69.198 L44.363,64.555 L45.706,69.526 C46.7272765,73.7805538 47.238208,78.1415995 47.228,82.517 C47.228,83.317 47.207,84.143 47.164,84.975 C52.552,85.175 56.399,84.084 58.794,81.593 C62.228,78.039 63.255,71.302 61.982,61.005 C61.352,56.077 59.536,48.235 57.925,41.315 C57.1,37.778 56.325,34.433 55.851,32.067 C52.842,16.938 56.58,7.544 60.242,2.33 C60.8207057,1.51691756 61.4471396,0.738884074 62.118,7.10542736e-15 C51.303,3.641 42.242,9.309 32.886,18.677 L39.465,26.321 L42.155,23.798 C43.6751153,29.760471 43.9191038,35.9767262 42.871,42.04 C40.6164363,38.6550826 38.0943719,35.4561873 35.329,32.474 L37.113,29.466 L31.182,22.566 L30.496,21.794 C23.205,31.819 20.842,40.028 20.842,40.028 L26.018,44.777 L29.027,47.51 L30.042,44.596 C33.3106117,50.887741 33.4877898,58.3369753 30.522,64.777 C29.613,61.224 25.947,55.969 25.947,55.969 L27.393,51.187 L19.693,44.208 C11.693,69.262 0.993,77.379 0.993,77.379 C0.993,77.379 12.559,75.289 19.004,73.121 C18.5277679,82.0800578 15.7743166,90.7696059 11.004,98.368" id="Path_9"></path>
                    </g>
                </g>
                <g id="Group_13" transform="translate(22.108000, 0.578000)">
                    <g id="Group_12">
                        <path d="M52.965,38.707 C57.7202474,35.6325154 63.3380351,34.1684689 68.989,34.531 C70.489,34.643 71.768,34.246 70.146,33.386 C65.694,31.036 55.317,31.835 51.646,34.342 C45.77,38.358 46.767,45.514 46.901,45.686 C48.397245,42.9511735 50.4651671,40.5708291 52.964,38.707 M106.515,30.38 L88.033,31.165 C88.0650418,33.3643433 87.7318483,35.5537559 87.047,37.644 C88.773,45.202 87.574,49.303 87.574,49.303 C84.482,42.093 82.13,40.092 82.13,40.092 C65.153,32.537 55.616,49.621 56.639,60.637 C57.47,69.693 60.754,81.714 63.308,100.573 C65.462,116.442 57.443,123.302 48.217,124.873 C48.017,124.9 47.817,124.937 47.617,124.979 C47.5687322,124.976855 47.520382,124.980549 47.473,124.99 C45.8935363,125.188528 44.3013869,125.268085 42.71,125.228 C42.6522069,125.213325 42.5925642,125.207259 42.533,125.21 C42.345,125.21 42.169,125.183 41.981,125.183 C41.263,125.141 40.556,125.065 39.854,124.983 C32.676,123.99 16.605,121.066 0.003,120.663 C9.769,114.952 17.403,105.058 21.672,98.053 C21.9653738,100.347711 22.114001,102.658614 22.117,104.972 C22.117,106.272 22.074,107.641 21.94,109.036 L21.779,110.947 L23.692,111.108 C31.332,111.773 36.747,110.313 40.292,106.658 C44.613,102.137 45.947,94.607 44.479,82.925 C43.847,77.804 41.988,69.859 40.366,62.854 C39.557,59.348 38.79,56.02 38.324,53.723 C35.576,39.923 38.86,31.541 42.101,26.946 C44.4986484,23.4528592 47.9535649,20.8209257 51.958,19.437 C52.022,19.426 52.087,19.41 52.158,19.399 L58.468,-0.001 L60.451,-0.001 L56.212,18.645 C57.193,18.474 58.189,18.317 59.196,18.162 L64.643,0.972 L66.603,0.972 L63.033,17.62 C68.678,16.894 74.795,16.332 81.578,15.837 C83.0155608,16.6323457 84.1772824,17.8460326 84.909,19.317 L102.695,13.837 L103.354,15.757 L86.354,22.367 C86.488,22.716 86.622,23.08 86.729,23.451 L105.314,21.137 L105.625,23.137 L87.588,26.737 C87.652,27.076 87.706,27.413 87.764,27.752 L106.525,28.358 L106.515,30.38 Z" id="Path_10"></path>
                    </g>
                </g>
            </g>
            <g id="GO_COUGS_" transform="translate(149.852000, 17.121000)">
                <g id="GOCOUGS!">
                    <use fill="#000000" xlink:href="#path-1"></use>
                    <use fill="#FFFFFF" xlink:href="#path-1"></use>
                </g>
            </g>
        </g>
    </g>
</svg>