<svg xmlns="http://www.w3.org/2000/svg" xmlns:xlink="http://www.w3.org/1999/xlink" width="625.3" height="211.782" viewBox="0 0 625.3 211.782">
  <defs>
    <clipPath id="clip-path">
      <path id="Path_6" data-name="Path 6" d="M4.253,29.293H588.536V-99.079H4.253Z" transform="translate(-4.253 99.079)" fill="#981e32"/>
    </clipPath>
    <clipPath id="clip-path-2">
      <path id="Path_48" data-name="Path 48" d="M0-115.1V96.682H554.118L625.3,26.514V-115.1Z" transform="translate(0 115.1)" fill="none"/>
    </clipPath>
  </defs>
  <g id="Group_82" data-name="Group 82" transform="translate(0 -719.1)">
    <g id="Group_3" data-name="Group 3" transform="translate(0 719.1)">
      <path id="Path_4" data-name="Path 4" d="M0,0V211.782H554.118L625.3,141.614V0Z" fill="#fff"/>
    </g>
    <g id="Group_81" data-name="Group 81">
      <path id="Path_8" data-name="Path 8" d="M0-115.1V96.682H554.118L625.3,26.514V-115.1Z" transform="translate(0 834.2)" fill="none"/>
      <path id="Path_11" data-name="Path 11" d="M4.253,29.293H588.536V-99.079H4.253Z" transform="translate(3.572 847.658)" fill="none"/>
      <g id="Group_80" data-name="Group 80">
        <g id="Group_6" data-name="Group 6" transform="translate(7.825 748.579)" clip-path="url(#clip-path)">
          <g id="Group_5" data-name="Group 5" transform="translate(78.798 114.624)">
            <g id="Group_4" data-name="Group 4" transform="translate(0 0)">
              <path id="Path_5" data-name="Path 5" d="M0,6.218S6.535,3.422,10.115-7.4a26.905,26.905,0,0,1,2.332,13.38C9.554,6.627,0,6.218,0,6.218" transform="translate(0 7.403)" fill="#981e32"/>
            </g>
          </g>
        </g>
        <g id="Group_7" data-name="Group 7" transform="translate(91.555 814.903)">
          <path id="Path_7" data-name="Path 7" d="M13.772,0S17.757,21.762,3.639,22.506C-9.98,23.217-16.4,2.692-16.4,2.692S-13.1,42.8,5.992,40.159C27.49,37.188,13.772,0,13.772,0" transform="translate(16.396 0)" fill="#981e32"/>
        </g>
        <g id="Group_11" data-name="Group 11" transform="translate(7.824 771.409)">
          <g id="Group_10" data-name="Group 10" transform="translate(0 0)">
            <path id="Path_9" data-name="Path 9" d="M4.656,45.76a.065.065,0,0,1,.023,0C20.6,42.123,32.8,23.506,36.373,16.034L38.649,11.3l1.369,5.066a56.155,56.155,0,0,1,1.551,13.239c0,.82-.021,1.657-.065,2.5,5.491.209,9.411-.908,11.851-3.446,3.5-3.622,4.546-10.487,3.249-20.98-.645-5.022-2.5-13.009-4.138-20.061-.841-3.6-1.632-7.013-2.114-9.424-3.068-15.417.743-24.989,4.476-30.3a25.715,25.715,0,0,1,1.912-2.374c-11.022,3.71-20.259,9.486-29.79,19.028l6.7,7.79L36.4-30.23a44.538,44.538,0,0,1,.73,18.589,77.613,77.613,0,0,0-7.686-9.748l1.818-3.065L25.214-31.49l-.7-.787c-7.429,10.224-9.832,18.589-9.832,18.589l5.27,4.836,3.067,2.785,1.032-2.965a23.388,23.388,0,0,1,.491,20.562c-.927-3.62-4.662-8.976-4.662-8.976l1.473-4.873L13.51-9.432C5.355,16.1-5.542,24.371-5.542,24.371s11.786-2.13,18.354-4.339A53.753,53.753,0,0,1,4.656,45.76" transform="translate(5.542 54.477)" fill="#981e32"/>
          </g>
        </g>
        <g id="Group_13" data-name="Group 13" transform="translate(28.494 748.578)">
          <g id="Group_12" data-name="Group 12" transform="translate(0 0)">
            <path id="Path_10" data-name="Path 10" d="M24.64,18.007a26.908,26.908,0,0,1,16.329-4.256c1.533.114,2.832-.29,1.179-1.167-4.536-2.4-15.111-1.58-18.851.974-5.988,4.093-4.972,11.384-4.836,11.56a22.114,22.114,0,0,1,6.179-7.112m54.57-8.486-18.835.8a20.257,20.257,0,0,1-1,6.6c1.759,7.7.537,11.881.537,11.881-3.151-7.347-5.548-9.387-5.548-9.387-17.3-7.7-27.017,9.711-25.974,20.94.847,9.229,4.193,21.478,6.8,40.7,2.2,16.171-5.977,23.161-15.378,24.765-.2.028-.408.065-.616.108a.613.613,0,0,0-.146.011,32.381,32.381,0,0,1-4.853.243.618.618,0,0,0-.18-.018c-.192,0-.371-.028-.563-.028-.732-.042-1.452-.121-2.167-.209-7.315-1.012-23.692-3.992-40.61-4.4,9.952-5.82,17.736-15.9,22.082-23.041a56.171,56.171,0,0,1,.454,7.05c0,1.323-.044,2.719-.18,4.142l-.164,1.947,1.95.165c7.785.678,13.3-.81,16.911-4.534,4.411-4.608,5.77-12.282,4.275-24.186-.644-5.219-2.538-13.315-4.192-20.453-.824-3.573-1.606-6.964-2.081-9.305-2.8-14.065.546-22.6,3.849-27.287A20.178,20.178,0,0,1,23.614-1.627c.065-.011.132-.028.2-.039l6.431-19.771h2.021l-4.319,19c1-.174,2.015-.334,3.041-.492L36.54-20.446h2L34.9-3.481c5.749-.74,11.983-1.313,18.9-1.822a8.254,8.254,0,0,1,3.395,3.55L75.317-7.338l.672,1.957L58.661,1.355c.137.355.273.727.382,1.1L77.985.1,78.3,2.137,59.923,5.813c.065.345.12.689.179,1.035l19.118.618Z" transform="translate(29.333 21.437)" fill="#981e32"/>
          </g>
        </g>
        <g id="Group_79" data-name="Group 79" transform="translate(0 719.1)" clip-path="url(#clip-path-2)">
          <g id="Group_15" data-name="Group 15" transform="translate(158.3 55.164)">
            <path id="Path_12" data-name="Path 12" d="M117.037,1404.251h-2.793v-99.044h2.793Z" transform="translate(-114.244 -1305.207)" fill="#606267"/>
          </g>
          <g id="Group_17" data-name="Group 17" transform="translate(188.156 100.632)">
            <g id="Group_16" data-name="Group 16" transform="translate(0 0)">
              <path id="Path_13" data-name="Path 13" d="M4.342,14.883V-11.608H-5.169v-6.11H20.779v6.11H11.318V14.883Z" transform="translate(5.169 17.719)" fill="#606267"/>
            </g>
          </g>
          <g id="Group_19" data-name="Group 19" transform="translate(220.982 100.631)">
            <g id="Group_18" data-name="Group 18" transform="translate(0 0)">
              <path id="Path_14" data-name="Path 14" d="M8.707,4.8c0-2.737-2.1-4.4-4.878-4.4H-3.439V9.2H3.829c2.78,0,4.878-1.662,4.878-4.4M8.024,26.892,1.634,15.307H-3.439V26.892h-6.927v-32.6H4.853c6.78,0,10.925,4.448,10.925,10.509,0,5.768-3.608,8.847-7.12,9.677l7.317,12.417Z" transform="translate(10.365 5.712)" fill="#606267"/>
            </g>
          </g>
          <g id="Group_20" data-name="Group 20" transform="translate(254.785 100.631)">
            <path id="Path_15" data-name="Path 15" d="M166.682,1329.918h6.926v32.6h-6.926Z" transform="translate(-166.682 -1329.918)" fill="#606267"/>
          </g>
          <g id="Group_21" data-name="Group 21" transform="translate(268.833 113.926)">
            <path id="Path_16" data-name="Path 16" d="M174.317,1337.144h11.705v5.279H174.317Z" transform="translate(-174.317 -1337.144)" fill="#606267"/>
          </g>
          <g id="Group_23" data-name="Group 23" transform="translate(286.101 100.094)">
            <g id="Group_22" data-name="Group 22" transform="translate(0 0)">
              <path id="Path_17" data-name="Path 17" d="M0,7.7C0-2.322,7.561-9.165,17.315-9.165A14.89,14.89,0,0,1,30.924-1.2L24.973,1.735a8.816,8.816,0,0,0-7.658-4.741c-5.9,0-10.193,4.546-10.193,10.7s4.291,10.7,10.193,10.7a8.719,8.719,0,0,0,7.658-4.741l5.951,2.886a14.983,14.983,0,0,1-13.609,8.016C7.561,24.562,0,17.718,0,7.7" transform="translate(0 9.165)" fill="#606267"/>
            </g>
          </g>
          <g id="Group_24" data-name="Group 24" transform="translate(323.61 100.631)">
            <path id="Path_18" data-name="Path 18" d="M204.087,1329.918h6.926v32.6h-6.926Z" transform="translate(-204.087 -1329.918)" fill="#606267"/>
          </g>
          <g id="Group_26" data-name="Group 26" transform="translate(337.415 100.632)">
            <g id="Group_25" data-name="Group 25" transform="translate(0 0)">
              <path id="Path_19" data-name="Path 19" d="M4.342,14.883V-11.608h-9.51v-6.11H20.78v6.11H11.317V14.883Z" transform="translate(5.169 17.719)" fill="#606267"/>
            </g>
          </g>
          <g id="Group_27" data-name="Group 27" transform="translate(370.242 100.631)">
            <path id="Path_20" data-name="Path 20" d="M229.43,1329.918h6.925v32.6H229.43Z" transform="translate(-229.43 -1329.918)" fill="#606267"/>
          </g>
          <g id="Group_29" data-name="Group 29" transform="translate(386.045 100.632)">
            <g id="Group_28" data-name="Group 28" transform="translate(0 0)">
              <path id="Path_21" data-name="Path 21" d="M0,14.883v-32.6H23.022v6.11H6.927v6.892H22.68v6.11H6.927V8.773h16.1v6.11Z" transform="translate(0 17.719)" fill="#606267"/>
            </g>
          </g>
          <g id="Group_31" data-name="Group 31" transform="translate(414.726 100.143)">
            <g id="Group_30" data-name="Group 30" transform="translate(0 0)">
              <path id="Path_22" data-name="Path 22" d="M0,13.009,3.756,7.731a14.25,14.25,0,0,0,10.341,4.4c3.8,0,5.657-1.758,5.657-3.617C19.754,2.744,1.023,6.7,1.023-5.564c0-5.426,4.683-9.923,12.341-9.923,5.17,0,9.463,1.564,12.682,4.546L22.192-5.857a13.958,13.958,0,0,0-9.463-3.568C9.756-9.426,8.1-8.106,8.1-6.151c0,5.181,18.68,1.711,18.68,13.882,0,5.963-4.244,10.46-13.022,10.46-6.244,0-10.733-2.1-13.755-5.183" transform="translate(0 15.487)" fill="#606267"/>
            </g>
          </g>
          <g id="Group_33" data-name="Group 33" transform="translate(186.81 73.655)">
            <g id="Group_32" data-name="Group 32" transform="translate(0 0)">
              <path id="Path_23" data-name="Path 23" d="M5.119,5.951,2.585-3.664.068,5.951H-2.37L-6.095-7.084h2.556L-1,2.961,1.687-7.084H3.5L6.191,2.961,8.706-7.084h2.556L7.557,5.951Z" transform="translate(6.095 7.084)" fill="#606267"/>
            </g>
          </g>
          <g id="Group_35" data-name="Group 35" transform="translate(207.355 73.655)">
            <g id="Group_34" data-name="Group 34" transform="translate(0 0)">
              <path id="Path_24" data-name="Path 24" d="M2.982,1.053.643,7.267H5.324Zm3.94,10.729-.956-2.5H0l-.956,2.5H-3.551L1.56-1.253H4.407L9.515,11.782Z" transform="translate(3.551 1.253)" fill="#606267"/>
            </g>
          </g>
          <g id="Group_37" data-name="Group 37" transform="translate(224.721 73.46)">
            <g id="Group_36" data-name="Group 36" transform="translate(0 0)">
              <path id="Path_25" data-name="Path 25" d="M0,5.2,1.267,3.443a5.613,5.613,0,0,0,4.115,1.8c1.873,0,2.613-.919,2.613-1.778C7.995.725.41,2.426.41-2.381.41-4.531,2.3-6.192,5.148-6.192a6.766,6.766,0,0,1,4.876,1.817l-1.307,1.7A5.28,5.28,0,0,0,4.954-4.16c-1.346,0-2.2.645-2.2,1.621,0,2.424,7.566.919,7.566,5.786,0,2.169-1.52,4.025-5.031,4.025A6.949,6.949,0,0,1,0,5.2" transform="translate(0 6.192)" fill="#606267"/>
            </g>
          </g>
          <g id="Group_39" data-name="Group 39" transform="translate(241.051 73.655)">
            <g id="Group_38" data-name="Group 38" transform="translate(0 0)">
              <path id="Path_26" data-name="Path 26" d="M4.131,5.951V.264H-2.636V5.951H-4.918V-7.084h2.281V-1.75H4.131V-7.084H6.412V5.951Z" transform="translate(4.918 7.084)" fill="#606267"/>
            </g>
          </g>
          <g id="Group_40" data-name="Group 40" transform="translate(259.06 73.655)">
            <path id="Path_27" data-name="Path 27" d="M169,1315.257h2.281v13.035H169Z" transform="translate(-169.005 -1315.257)" fill="#606267"/>
          </g>
          <g id="Group_42" data-name="Group 42" transform="translate(268.014 73.655)">
            <g id="Group_41" data-name="Group 41" transform="translate(0 0)">
              <path id="Path_28" data-name="Path 28" d="M4.14,5.951l-6.787-9.3v9.3H-4.928V-7.084h2.34l6.65,9.048V-7.084H6.343V5.951Z" transform="translate(4.928 7.084)" fill="#606267"/>
            </g>
          </g>
          <g id="Group_44" data-name="Group 44" transform="translate(285.38 73.44)">
            <g id="Group_43" data-name="Group 43" transform="translate(0 0)">
              <path id="Path_29" data-name="Path 29" d="M0,3.078A6.567,6.567,0,0,1,6.826-3.664,6.11,6.11,0,0,1,12.071-.948L10.2.108a4.135,4.135,0,0,0-3.372-1.74A4.462,4.462,0,0,0,2.34,3.078,4.478,4.478,0,0,0,6.826,7.806,4.765,4.765,0,0,0,9.907,6.635V4.6H6.026V2.589h6.162V7.474A7.047,7.047,0,0,1,6.826,9.838,6.583,6.583,0,0,1,0,3.078" transform="translate(0 3.664)" fill="#606267"/>
            </g>
          </g>
          <g id="Group_46" data-name="Group 46" transform="translate(302.92 73.655)">
            <g id="Group_45" data-name="Group 45" transform="translate(0 0)">
              <path id="Path_30" data-name="Path 30" d="M1.8,5.951V-5.07h-3.94V-7.084H8.019V-5.07H4.08V5.951Z" transform="translate(2.141 7.084)" fill="#606267"/>
            </g>
          </g>
          <g id="Group_48" data-name="Group 48" transform="translate(317.848 73.44)">
            <g id="Group_47" data-name="Group 47" transform="translate(0 0)">
              <path id="Path_31" data-name="Path 31" d="M5,3.078c0-2.7-1.7-4.71-4.31-4.71-2.632,0-4.309,2.014-4.309,4.71,0,2.677,1.676,4.709,4.309,4.709C3.305,7.787,5,5.755,5,3.078m-10.959,0A6.459,6.459,0,0,1,.693-3.664a6.46,6.46,0,0,1,6.65,6.742A6.46,6.46,0,0,1,.693,9.82,6.459,6.459,0,0,1-5.956,3.078" transform="translate(5.956 3.664)" fill="#606267"/>
            </g>
          </g>
          <g id="Group_50" data-name="Group 50" transform="translate(337.262 73.655)">
            <g id="Group_49" data-name="Group 49" transform="translate(0 0)">
              <path id="Path_32" data-name="Path 32" d="M4.139,5.951l-6.785-9.3v9.3H-4.927V-7.084h2.338l6.65,9.048V-7.084H6.344V5.951Z" transform="translate(4.927 7.084)" fill="#606267"/>
            </g>
          </g>
          <g id="Group_52" data-name="Group 52" transform="translate(363.288 73.46)">
            <g id="Group_51" data-name="Group 51" transform="translate(0 0)">
              <path id="Path_33" data-name="Path 33" d="M0,5.2,1.268,3.443a5.606,5.606,0,0,0,4.114,1.8c1.873,0,2.613-.919,2.613-1.778C7.995.725.41,2.426.41-2.381.41-4.531,2.3-6.192,5.148-6.192a6.766,6.766,0,0,1,4.876,1.817l-1.307,1.7A5.277,5.277,0,0,0,4.954-4.16c-1.346,0-2.2.645-2.2,1.621,0,2.424,7.567.919,7.567,5.786,0,2.169-1.522,4.025-5.032,4.025A6.949,6.949,0,0,1,0,5.2" transform="translate(0 6.192)" fill="#606267"/>
            </g>
          </g>
          <g id="Group_54" data-name="Group 54" transform="translate(378.585 73.655)">
            <g id="Group_53" data-name="Group 53" transform="translate(0 0)">
              <path id="Path_34" data-name="Path 34" d="M1.8,5.951V-5.07H-2.14V-7.084H8.02V-5.07H4.081V5.951Z" transform="translate(2.14 7.084)" fill="#606267"/>
            </g>
          </g>
          <g id="Group_56" data-name="Group 56" transform="translate(391.952 73.655)">
            <g id="Group_55" data-name="Group 55" transform="translate(0 0)">
              <path id="Path_35" data-name="Path 35" d="M2.982,1.053.642,7.267H5.323Zm3.94,10.729-.956-2.5H0l-.956,2.5H-3.55L1.559-1.253H4.406L9.515,11.782Z" transform="translate(3.55 1.253)" fill="#606267"/>
            </g>
          </g>
          <g id="Group_58" data-name="Group 58" transform="translate(408.242 73.655)">
            <g id="Group_57" data-name="Group 57" transform="translate(0 0)">
              <path id="Path_36" data-name="Path 36" d="M1.8,5.951V-5.07h-3.94V-7.084H8.019V-5.07H4.08V5.951Z" transform="translate(2.141 7.084)" fill="#606267"/>
            </g>
          </g>
          <g id="Group_60" data-name="Group 60" transform="translate(424.241 73.655)">
            <g id="Group_59" data-name="Group 59" transform="translate(0 0)">
              <path id="Path_37" data-name="Path 37" d="M0,5.951V-7.084H8.912V-5.07H2.281v3.381H8.775V.323H2.281V3.938H8.912V5.951Z" transform="translate(0 7.084)" fill="#606267"/>
            </g>
          </g>
          <g id="Group_62" data-name="Group 62" transform="translate(448.317 73.656)">
            <g id="Group_61" data-name="Group 61" transform="translate(0 0)">
              <path id="Path_38" data-name="Path 38" d="M0,3.6V-4.29H2.3V3.526a3.092,3.092,0,0,0,3.336,3.42,3.085,3.085,0,0,0,3.314-3.42V-4.29h2.3V3.584c0,3.244-1.854,5.393-5.616,5.393C1.852,8.977,0,6.809,0,3.6" transform="translate(0 4.29)" fill="#606267"/>
            </g>
          </g>
          <g id="Group_64" data-name="Group 64" transform="translate(466.249 73.655)">
            <g id="Group_63" data-name="Group 63" transform="translate(0 0)">
              <path id="Path_39" data-name="Path 39" d="M4.139,5.951l-6.785-9.3v9.3H-4.927V-7.084h2.34L4.061,1.964V-7.084H6.344V5.951Z" transform="translate(4.927 7.084)" fill="#606267"/>
            </g>
          </g>
          <g id="Group_65" data-name="Group 65" transform="translate(484.198 73.655)">
            <path id="Path_40" data-name="Path 40" d="M291.363,1315.257h2.281v13.035h-2.281Z" transform="translate(-291.363 -1315.257)" fill="#606267"/>
          </g>
          <g id="Group_67" data-name="Group 67" transform="translate(491.79 73.655)">
            <g id="Group_66" data-name="Group 66" transform="translate(0 0)">
              <path id="Path_41" data-name="Path 41" d="M2.332,5.951-2.776-7.084H-.185L3.755,3.469,7.695-7.084h2.593L5.179,5.951Z" transform="translate(2.776 7.084)" fill="#606267"/>
            </g>
          </g>
          <g id="Group_69" data-name="Group 69" transform="translate(510.187 73.655)">
            <g id="Group_68" data-name="Group 68" transform="translate(0 0)">
              <path id="Path_42" data-name="Path 42" d="M0,5.951V-7.084H8.91V-5.07H2.281v3.381H8.774V.323H2.281V3.938H8.91V5.951Z" transform="translate(0 7.084)" fill="#606267"/>
            </g>
          </g>
          <g id="Group_71" data-name="Group 71" transform="translate(525.346 73.656)">
            <g id="Group_70" data-name="Group 70" transform="translate(0 0)">
              <path id="Path_43" data-name="Path 43" d="M3.481,1.864A2.053,2.053,0,0,0,1.259-.207h-3.12V3.937h3.12A2.053,2.053,0,0,0,3.481,1.864m-.2,8.95L.4,5.949H-1.862v4.865H-4.144V-2.219H1.569A3.952,3.952,0,0,1,5.821,1.864,3.654,3.654,0,0,1,2.74,5.695l3.179,5.119Z" transform="translate(4.144 2.219)" fill="#606267"/>
            </g>
          </g>
          <g id="Group_73" data-name="Group 73" transform="translate(540.664 73.46)">
            <g id="Group_72" data-name="Group 72" transform="translate(0 0)">
              <path id="Path_44" data-name="Path 44" d="M0,5.2,1.267,3.443a5.61,5.61,0,0,0,4.115,1.8c1.871,0,2.613-.919,2.613-1.778C7.995.725.41,2.426.41-2.381.41-4.531,2.3-6.192,5.148-6.192a6.762,6.762,0,0,1,4.875,1.817l-1.306,1.7A5.283,5.283,0,0,0,4.953-4.16c-1.346,0-2.2.645-2.2,1.621,0,2.424,7.566.919,7.566,5.786,0,2.169-1.522,4.025-5.031,4.025A6.947,6.947,0,0,1,0,5.2" transform="translate(0 6.192)" fill="#606267"/>
            </g>
          </g>
          <g id="Group_74" data-name="Group 74" transform="translate(556.992 73.655)">
            <path id="Path_45" data-name="Path 45" d="M330.926,1315.257h2.281v13.035h-2.281Z" transform="translate(-330.926 -1315.257)" fill="#606267"/>
          </g>
          <g id="Group_76" data-name="Group 76" transform="translate(565.11 73.655)">
            <g id="Group_75" data-name="Group 75" transform="translate(0 0)">
              <path id="Path_46" data-name="Path 46" d="M1.8,5.951V-5.07h-3.94V-7.084H8.019V-5.07H4.08V5.951Z" transform="translate(2.141 7.084)" fill="#606267"/>
            </g>
          </g>
          <g id="Group_78" data-name="Group 78" transform="translate(579.743 73.655)">
            <g id="Group_77" data-name="Group 77" transform="translate(0 0)">
              <path id="Path_47" data-name="Path 47" d="M2.305,5.951V.538l-5.05-7.622H-.132l3.588,5.59,3.549-5.59H9.619L4.588.538V5.951Z" transform="translate(2.745 7.084)" fill="#606267"/>
            </g>
          </g>
        </g>
      </g>
    </g>
  </g>
</svg>
