<?xml version="1.0" encoding="UTF-8"?>
<svg width="889px" height="1028px" viewBox="0 0 889 1028" version="1.1" xmlns="http://www.w3.org/2000/svg" xmlns:xlink="http://www.w3.org/1999/xlink">
    <title>s</title>
    <defs>
        <rect id="path-1" x="0" y="0" width="888.172" height="1027.91"></rect>
    </defs>
    <g id="Page-1" stroke="none" stroke-width="1" fill="none" fill-rule="evenodd">
        <g id="s">
            <mask id="mask-2" fill="white">
                <use xlink:href="#path-1"></use>
            </mask>
            <g id="Rectangle_1"></g>
            <g id="Group_1" mask="url(#mask-2)" fill="#FFFFFF" fill-rule="nonzero">
                <g transform="translate(432.000000, 99.000000)" id="Path_2">
                    <path d="M229.129,538.208 C176.103,538.208 123.84,526.783 89.107,507.629 L79.694,527.184 L36.024,527.184 L35.905,526.604 L0.497,356.204 L36.297,346.304 L36.55,346.879 C64.168,409.387 128.866,482.379 220.314,482.379 C264.404,482.379 298.943,456.233 298.943,422.856 C298.943,371.182 245.289,353.074 188.485,333.902 C149.695,320.613 105.731,305.551 72.178,279.602 C33.916,250.008 15.318,210.823 15.318,159.807 C15.318,109.626 36.131,68.069 75.504,39.632 C110.561,14.306 159.38,0.36 212.961,0.36 C267.775,0.36 310.197,10.075 346.375,30.925 L355.785,11.381 L399.461,11.381 L399.58,11.963 L430.58,163.263 L396.98,172.426 L396.728,171.849 C366.278,102.036 300.491,56.925 229.128,56.925 C189.096,56.925 165.196,78.078 165.196,113.51 C165.196,155.98 207.755,170.644 282.975,192.904 L282.975,192.904 C321.91,204.584 366.041,217.824 399.843,242.612 C437.743,270.406 456.167,308.454 456.167,358.928 C456.167,412.359 432.945,457.916 389.008,490.671 C347.891,521.325 291.108,538.208 229.124,538.208 M88.461,505.608 L89.137,505.985 C123.657,525.251 175.989,536.753 229.124,536.753 C361.946,536.753 454.71,463.629 454.71,358.929 C454.71,245.946 359.255,217.31 282.556,194.3 C213.577,173.888 163.735,159.138 163.735,113.511 C163.735,77.168 188.179,55.47 229.123,55.47 C300.867,55.47 367.012,100.676 397.804,170.691 L428.87,162.22 L398.271,12.837 L356.706,12.837 L347.006,32.974 L346.328,32.574 C310.235,11.592 267.861,1.82 212.961,1.82 C115.306,1.82 16.768,50.67 16.768,159.804 C16.768,273.537 112.238,306.244 188.95,332.524 C246.26,351.868 300.394,370.138 300.394,422.857 C300.394,457.051 265.216,483.836 220.309,483.836 C128.443,483.836 63.409,410.821 35.469,348.042 L2.197,357.242 L37.211,525.728 L78.778,525.728 L88.461,505.608 Z"></path>
                </g>
            </g>
        </g>
    </g>
</svg>