<?xml version="1.0" encoding="UTF-8"?>
<svg width="889px" height="1028px" viewBox="0 0 889 1028" version="1.1" xmlns="http://www.w3.org/2000/svg" xmlns:xlink="http://www.w3.org/1999/xlink">
    <title>u</title>
    <defs>
        <rect id="path-1" x="0" y="0" width="888.172" height="1027.91"></rect>
    </defs>
    <g id="Page-1" stroke="none" stroke-width="1" fill="none" fill-rule="evenodd">
        <g id="u">
            <mask id="mask-2" fill="white">
                <use xlink:href="#path-1"></use>
            </mask>
            <g id="Rectangle_1"></g>
            <g id="Group_1" mask="url(#mask-2)" fill="#FFFFFF" fill-rule="nonzero">
                <g transform="translate(263.000000, 491.000000)" id="Path_3">
                    <path d="M289.448,536.91 C213.038,536.91 153.874,520.688 113.603,488.696 C72.971,456.418 52.369,408.729 52.369,346.952 L52.369,85.171 C52.369,49.629 41.977,43.959 0.677,40.271 L0.014,40.213 L0.014,0.673 L267.738,0.673 L267.738,40.213 L267.075,40.271 C225.775,43.958 215.381,49.628 215.381,85.171 L215.381,366.396 C215.381,444.251 273.008,471.875 322.356,471.875 C399.19,471.875 439.803,428.675 439.803,346.949 L439.803,85.171 C439.803,49.629 429.41,43.959 388.109,40.271 L387.446,40.213 L387.446,0.673 L560.93,0.673 L560.93,40.213 L560.267,40.271 C518.967,43.958 508.574,49.628 508.574,85.171 L508.574,346.952 C508.574,412.113 487.689,461.407 446.496,493.469 C409.46,522.293 356.622,536.91 289.447,536.91 M1.47,38.882 C42.648,42.614 53.825,48.929 53.825,85.171 L53.825,346.952 C53.825,408.263 74.242,455.57 114.509,487.552 C154.517,519.335 213.374,535.452 289.448,535.452 C388.748,535.452 507.119,502.752 507.119,346.952 L507.119,85.171 C507.119,48.929 518.297,42.614 559.474,38.882 L559.474,2.13 L388.904,2.13 L388.904,38.882 C430.082,42.614 441.26,48.929 441.26,85.171 L441.26,346.952 C441.26,429.632 400.144,473.334 322.36,473.334 C294.56,473.334 268.702,464.777 249.537,449.239 C226.237,430.35 213.928,401.703 213.928,366.399 L213.928,85.171 C213.928,48.929 225.106,42.614 266.284,38.882 L266.284,2.13 L1.47,2.13 L1.47,38.882 Z"></path>
                </g>
            </g>
        </g>
    </g>
</svg>