<?xml version="1.0" encoding="UTF-8"?>
<svg width="889px" height="1028px" viewBox="0 0 889 1028" version="1.1" xmlns="http://www.w3.org/2000/svg" xmlns:xlink="http://www.w3.org/1999/xlink">
    <title>w</title>
    <defs>
        <rect id="path-1" x="0" y="0" width="888.172" height="1027.91"></rect>
    </defs>
    <g id="Page-1" stroke="none" stroke-width="1" fill="none" fill-rule="evenodd">
        <g id="w">
            <mask id="mask-2" fill="white">
                <use xlink:href="#path-1"></use>
            </mask>
            <g id="Rectangle_1"></g>
            <g id="Group_1" mask="url(#mask-2)" fill="#FFFFFF" fill-rule="nonzero">
                <path d="M501.134,464.29 L405.494,464.29 L328.679,202.333 L251.862,464.29 L156.225,464.29 L156.071,463.767 L41.687,74.986 C32.209,42.5 19.849,38.271 0.613,35.168 L0,35.069 L0,0 L226.92,0 L226.92,35.115 L226.257,35.173 C206.49,36.939 194.887,39.2 190.189,46.083 C186.55,51.414 186.839,59.669 191.189,74.576 L246.689,261.976 L296.184,93.95 L290.948,74.975 C281.948,44.1 273.672,38.475 249.898,35.17 L249.269,35.084 L249.269,0 L476.192,0 L476.192,35.108 L475.534,35.174 C456.806,37.01 445.007,39.488 440.114,46.72 C436.354,52.281 436.461,60.873 440.459,74.577 L495.959,262.632 L551.459,74.575 C555.513,60.675 555.659,52.025 551.935,46.518 C547.135,39.418 535.506,36.982 517.044,35.173 L516.387,35.107 L516.387,0 L658.682,0 L658.682,35.078 L658.057,35.17 C635.733,38.453 624.208,43.452 615.012,74.986 L501.134,464.29 Z M406.583,462.834 L500.042,462.834 L613.615,74.577 C622.546,43.951 633.832,37.346 657.226,33.821 L657.226,1.456 L517.846,1.456 L517.846,33.789 C536.36,35.637 548.084,38.22 553.146,45.704 C557.136,51.604 557.046,60.633 552.861,74.985 L495.961,267.778 L439.061,74.988 C434.93,60.827 434.884,51.857 438.908,45.905 C444.061,38.287 455.955,35.663 474.735,33.789 L474.735,1.456 L250.725,1.456 L250.725,33.817 C274.741,37.233 283.193,43.178 292.35,74.577 L297.7,93.963 L297.642,94.163 L246.692,267.113 L189.792,74.988 C185.306,59.609 185.073,50.998 188.992,45.263 C193.96,37.983 205.659,35.582 225.467,33.784 L225.467,1.456 L1.456,1.456 L1.456,33.83 C20.356,36.93 33.495,41.703 43.083,74.577 L157.314,462.834 L250.773,462.834 L328.679,197.158 L406.583,462.834 Z" id="Path_1"></path>
            </g>
        </g>
    </g>
</svg>