<svg xmlns="http://www.w3.org/2000/svg" xmlns:xlink="http://www.w3.org/1999/xlink" width="250" height="54.93" viewBox="0 0 250 54.93">
  <defs>
    <clipPath id="clip-path">
      <path id="Path_6" data-name="Path 6" d="M4.253-44.152h250V-99.079h-250Z" transform="translate(-4.253 99.079)" fill="#981e32"/>
    </clipPath>
  </defs>
  <g id="Group_237" data-name="Group 237" transform="translate(-80.824 -16973.585)">
    <path id="Path_11" data-name="Path 11" d="M4.253-44.152h250V-99.079h-250Z" transform="translate(76.572 17072.666)" fill="none"/>
    <g id="Group_6" data-name="Group 6" transform="translate(80.825 16973.586)" clip-path="url(#clip-path)">
      <g id="Group_5" data-name="Group 5" transform="translate(33.715 49.044)">
        <g id="Group_4" data-name="Group 4" transform="translate(0 0)">
          <path id="Path_5" data-name="Path 5" d="M0-1.575S2.8-2.771,4.328-7.4a11.512,11.512,0,0,1,1,5.725A36.125,36.125,0,0,1,0-1.575" transform="translate(0 7.403)" fill="#fff"/>
        </g>
      </g>
    </g>
    <g id="Group_7" data-name="Group 7" transform="translate(116.651 17001.965)">
      <path id="Path_7" data-name="Path 7" d="M-3.488,0s1.705,9.311-4.336,9.63c-5.827.3-8.572-8.478-8.572-8.478s1.409,17.162,9.579,16.031C2.382,15.912-3.488,0-3.488,0" transform="translate(16.396 0)" fill="#fff"/>
    </g>
    <g id="Group_11" data-name="Group 11" transform="translate(80.824 16983.355)">
      <g id="Group_10" data-name="Group 10" transform="translate(0 0)">
        <path id="Path_9" data-name="Path 9" d="M-1.179-11.588a.028.028,0,0,1,.01,0c6.811-1.554,12.031-9.52,13.561-12.717l.974-2.025.586,2.167a24.028,24.028,0,0,1,.664,5.664c0,.351-.009.709-.028,1.072,2.349.089,4.027-.388,5.071-1.474,1.5-1.55,1.945-4.487,1.39-8.977-.276-2.149-1.068-5.566-1.771-8.583-.36-1.542-.7-3-.9-4.032-1.313-6.6.318-10.692,1.915-12.966a11,11,0,0,1,.818-1.016A31.582,31.582,0,0,0,8.36-46.335L11.229-43,12.4-44.1a19.057,19.057,0,0,1,.312,7.954A33.209,33.209,0,0,0,9.426-40.32l.778-1.311-2.586-3.01-.3-.337a28.487,28.487,0,0,0-4.207,7.954l2.255,2.069,1.312,1.191.442-1.269a10.007,10.007,0,0,1,.21,8.8,16.066,16.066,0,0,0-1.995-3.841l.63-2.085L2.61-35.2C-.88-24.279-5.542-20.74-5.542-20.74A73.444,73.444,0,0,0,2.311-22.6a23,23,0,0,1-3.49,11.008" transform="translate(5.542 54.477)" fill="#fff"/>
      </g>
    </g>
    <g id="Group_13" data-name="Group 13" transform="translate(89.668 16973.586)">
      <g id="Group_12" data-name="Group 12" transform="translate(0 0)">
        <path id="Path_10" data-name="Path 10" d="M-6.24-4.56A11.513,11.513,0,0,1,.747-6.381c.656.049,1.212-.124.5-.5C-.69-7.9-5.214-7.556-6.814-6.463A5.141,5.141,0,0,0-8.883-1.517,9.462,9.462,0,0,1-6.24-4.56M17.109-8.191,9.05-7.849a8.667,8.667,0,0,1-.43,2.825A11.054,11.054,0,0,1,8.85.06C7.5-3.083,6.476-3.956,6.476-3.956-.925-7.25-5.084.2-4.638,5c.362,3.949,1.794,9.19,2.908,17.413.939,6.919-2.557,9.91-6.58,10.6-.086.012-.175.028-.264.046a.262.262,0,0,0-.063,0,13.855,13.855,0,0,1-2.077.1.265.265,0,0,0-.077-.008c-.082,0-.159-.012-.241-.012-.313-.018-.621-.052-.927-.089a141.474,141.474,0,0,0-17.376-1.884c4.258-2.49,7.589-6.8,9.448-9.859a24.035,24.035,0,0,1,.194,3.017c0,.566-.019,1.164-.077,1.772l-.07.833.834.07c3.331.29,5.692-.346,7.236-1.94C-9.881,23.1-9.3,19.813-9.94,14.72c-.275-2.233-1.086-5.7-1.794-8.751-.353-1.529-.687-2.98-.89-3.981-1.2-6.018.234-9.672,1.647-11.675a8.633,8.633,0,0,1,4.3-3.272l.086-.017,2.751-8.459h.865l-1.848,8.13c.428-.075.862-.143,1.3-.211l2.375-7.5h.855l-1.556,7.259c2.46-.317,5.127-.562,8.085-.779a3.532,3.532,0,0,1,1.453,1.519l7.755-2.39.287.837L8.317-11.685c.058.152.117.311.163.473l8.1-1.009.136.871L8.857-9.778c.028.148.051.295.077.443l8.18.264Z" transform="translate(29.333 21.437)" fill="#fff"/>
      </g>
    </g>
    <path id="Path_12" data-name="Path 12" d="M115.439,1347.585h-1.2v-42.378h1.2Z" transform="translate(30.965 15679.37)" fill="#fff"/>
    <g id="Group_16" data-name="Group 16" transform="translate(157.984 17004.031)">
      <path id="Path_13" data-name="Path 13" d="M-1.1-3.769V-15.1h-4.07v-2.614h11.1V-15.1H1.885V-3.769Z" transform="translate(5.169 17.719)" fill="#fff"/>
    </g>
    <g id="Group_18" data-name="Group 18" transform="translate(172.029 17004.031)">
      <path id="Path_14" data-name="Path 14" d="M-2.2-1.215A1.892,1.892,0,0,0-4.292-3.1H-7.4V.667h3.11A1.892,1.892,0,0,0-2.2-1.215M-2.5,8.239-5.231,3.282H-7.4V8.239h-2.964V-5.712h6.512a4.339,4.339,0,0,1,4.674,4.5,4,4,0,0,1-3.046,4.14L.9,8.239Z" transform="translate(10.365 5.712)" fill="#fff"/>
    </g>
    <path id="Path_15" data-name="Path 15" d="M166.682,1329.918h2.964v13.949h-2.964Z" transform="translate(19.811 15674.113)" fill="#fff"/>
    <path id="Path_16" data-name="Path 16" d="M174.317,1337.144h5.008v2.259h-5.008Z" transform="translate(18.187 15672.576)" fill="#fff"/>
    <g id="Group_22" data-name="Group 22" transform="translate(199.892 17003.801)">
      <path id="Path_17" data-name="Path 17" d="M0-1.95A7.08,7.08,0,0,1,7.408-9.165a6.371,6.371,0,0,1,5.823,3.409L10.685-4.5A3.772,3.772,0,0,0,7.408-6.53,4.34,4.34,0,0,0,3.047-1.95,4.339,4.339,0,0,0,7.408,2.63,3.731,3.731,0,0,0,10.685.6l2.546,1.235a6.411,6.411,0,0,1-5.823,3.43A7.08,7.08,0,0,1,0-1.95" transform="translate(0 9.165)" fill="#fff"/>
    </g>
    <path id="Path_18" data-name="Path 18" d="M204.087,1329.918h2.964v13.949h-2.964Z" transform="translate(11.854 15674.113)" fill="#fff"/>
    <g id="Group_25" data-name="Group 25" transform="translate(221.847 17004.031)">
      <path id="Path_19" data-name="Path 19" d="M-1.1-3.769V-15.1H-5.169v-2.614h11.1V-15.1H1.885V-3.769Z" transform="translate(5.169 17.719)" fill="#fff"/>
    </g>
    <path id="Path_20" data-name="Path 20" d="M229.43,1329.918h2.963v13.949H229.43Z" transform="translate(6.463 15674.113)" fill="#fff"/>
    <g id="Group_28" data-name="Group 28" transform="translate(242.655 17004.031)">
      <path id="Path_21" data-name="Path 21" d="M0-3.769V-17.719H9.85V-15.1H2.964v2.949H9.7v2.614H2.964v3.157H9.85v2.614Z" transform="translate(0 17.719)" fill="#fff"/>
    </g>
    <g id="Group_30" data-name="Group 30" transform="translate(254.927 17003.822)">
      <path id="Path_22" data-name="Path 22" d="M0-3.294,1.607-5.552A6.1,6.1,0,0,0,6.032-3.671c1.627,0,2.42-.752,2.42-1.548,0-2.468-8.014-.773-8.014-6.023,0-2.322,2-4.246,5.28-4.246a7.734,7.734,0,0,1,5.426,1.945L9.5-11.367a5.972,5.972,0,0,0-4.049-1.527c-1.272,0-1.982.565-1.982,1.4,0,2.217,7.993.732,7.993,5.94,0,2.552-1.816,4.476-5.572,4.476A7.922,7.922,0,0,1,0-3.294" transform="translate(0 15.487)" fill="#fff"/>
    </g>
    <g id="Group_32" data-name="Group 32" transform="translate(157.408 16992.488)">
      <path id="Path_23" data-name="Path 23" d="M-1.3-1.507-2.381-5.621-3.458-1.507H-4.5L-6.095-7.084H-5l1.085,4.3,1.151-4.3h.776l1.151,4.3,1.076-4.3H1.332L-.254-1.507Z" transform="translate(6.095 7.084)" fill="#fff"/>
    </g>
    <g id="Group_34" data-name="Group 34" transform="translate(166.199 16992.49)">
      <path id="Path_24" data-name="Path 24" d="M-.755-.267l-1,2.659h2ZM.93,4.324.521,3.253H-2.032l-.409,1.071h-1.11l2.187-5.577H-.146L2.04,4.324Z" transform="translate(3.551 1.253)" fill="#fff"/>
    </g>
    <g id="Group_36" data-name="Group 36" transform="translate(173.629 16992.406)">
      <path id="Path_25" data-name="Path 25" d="M0-1.317l.542-.752A2.4,2.4,0,0,0,2.3-1.3c.8,0,1.118-.393,1.118-.761,0-1.171-3.245-.443-3.245-2.5,0-.92.809-1.631,2.027-1.631a2.9,2.9,0,0,1,2.086.777l-.559.728a2.259,2.259,0,0,0-1.61-.636c-.576,0-.943.276-.943.694,0,1.037,3.237.393,3.237,2.476,0,.928-.65,1.722-2.152,1.722A2.973,2.973,0,0,1,0-1.317" transform="translate(0 6.192)" fill="#fff"/>
    </g>
    <g id="Group_38" data-name="Group 38" transform="translate(180.616 16992.488)">
      <path id="Path_26" data-name="Path 26" d="M-1.046-1.507V-3.94h-2.9v2.433h-.976V-7.084h.976V-4.8h2.9V-7.084H-.07v5.577Z" transform="translate(4.918 7.084)" fill="#fff"/>
    </g>
    <path id="Path_27" data-name="Path 27" d="M169,1315.257h.976v5.577H169Z" transform="translate(19.317 15677.232)" fill="#fff"/>
    <g id="Group_41" data-name="Group 41" transform="translate(192.153 16992.488)">
      <path id="Path_28" data-name="Path 28" d="M-1.048-1.507l-2.9-3.98v3.98h-.976V-7.084h1l2.845,3.871V-7.084h.976v5.577Z" transform="translate(4.928 7.084)" fill="#fff"/>
    </g>
    <g id="Group_43" data-name="Group 43" transform="translate(199.583 16992.396)">
      <path id="Path_29" data-name="Path 29" d="M0-.779A2.81,2.81,0,0,1,2.921-3.664,2.614,2.614,0,0,1,5.165-2.5l-.8.452a1.769,1.769,0,0,0-1.443-.745A1.909,1.909,0,0,0,1-.779,1.916,1.916,0,0,0,2.921,1.244a2.039,2.039,0,0,0,1.318-.5V-.127H2.578V-.989H5.215V1.1A3.015,3.015,0,0,1,2.921,2.113,2.817,2.817,0,0,1,0-.779" transform="translate(0 3.664)" fill="#fff"/>
    </g>
    <g id="Group_45" data-name="Group 45" transform="translate(207.088 16992.488)">
      <path id="Path_30" data-name="Path 30" d="M-.455-1.507V-6.223H-2.141v-.862H2.206v.862H.521v4.716Z" transform="translate(2.141 7.084)" fill="#fff"/>
    </g>
    <g id="Group_47" data-name="Group 47" transform="translate(213.475 16992.396)">
      <path id="Path_31" data-name="Path 31" d="M-1.267-.779A1.851,1.851,0,0,0-3.111-2.795,1.846,1.846,0,0,0-4.955-.779,1.85,1.85,0,0,0-3.111,1.235,1.855,1.855,0,0,0-1.267-.779m-4.689,0A2.763,2.763,0,0,1-3.111-3.664,2.764,2.764,0,0,1-.266-.779,2.764,2.764,0,0,1-3.111,2.105,2.763,2.763,0,0,1-5.956-.779" transform="translate(5.956 3.664)" fill="#fff"/>
    </g>
    <g id="Group_49" data-name="Group 49" transform="translate(221.782 16992.488)">
      <path id="Path_32" data-name="Path 32" d="M-1.048-1.507l-2.9-3.98v3.98h-.976V-7.084h1l2.845,3.871V-7.084H-.1v5.577Z" transform="translate(4.927 7.084)" fill="#fff"/>
    </g>
    <g id="Group_51" data-name="Group 51" transform="translate(232.918 16992.406)">
      <path id="Path_33" data-name="Path 33" d="M0-1.317l.543-.752A2.4,2.4,0,0,0,2.3-1.3c.8,0,1.118-.393,1.118-.761,0-1.171-3.245-.443-3.245-2.5,0-.92.809-1.631,2.027-1.631a2.9,2.9,0,0,1,2.086.777l-.559.728a2.258,2.258,0,0,0-1.61-.636c-.576,0-.943.276-.943.694,0,1.037,3.238.393,3.238,2.476,0,.928-.651,1.722-2.153,1.722A2.973,2.973,0,0,1,0-1.317" transform="translate(0 6.192)" fill="#fff"/>
    </g>
    <g id="Group_53" data-name="Group 53" transform="translate(239.463 16992.488)">
      <path id="Path_34" data-name="Path 34" d="M-.455-1.507V-6.223H-2.14v-.862H2.207v.862H.521v4.716Z" transform="translate(2.14 7.084)" fill="#fff"/>
    </g>
    <g id="Group_55" data-name="Group 55" transform="translate(245.183 16992.49)">
      <path id="Path_35" data-name="Path 35" d="M-.755-.267l-1,2.659h2ZM.931,4.324.522,3.253H-2.032l-.409,1.071H-3.55l2.186-5.577H-.146L2.04,4.324Z" transform="translate(3.55 1.253)" fill="#fff"/>
    </g>
    <g id="Group_57" data-name="Group 57" transform="translate(252.153 16992.488)">
      <path id="Path_36" data-name="Path 36" d="M-.455-1.507V-6.223H-2.141v-.862H2.206v.862H.521v4.716Z" transform="translate(2.141 7.084)" fill="#fff"/>
    </g>
    <g id="Group_59" data-name="Group 59" transform="translate(258.998 16992.488)">
      <path id="Path_37" data-name="Path 37" d="M0-1.507V-7.084H3.813v.862H.976v1.447H3.755v.861H.976v1.547H3.813v.861Z" transform="translate(0 7.084)" fill="#fff"/>
    </g>
    <g id="Group_61" data-name="Group 61" transform="translate(269.3 16992.49)">
      <path id="Path_38" data-name="Path 38" d="M0-.913V-4.29H.984V-.946A1.323,1.323,0,0,0,2.412.517,1.32,1.32,0,0,0,3.83-.946V-4.29h.985V-.921a2.143,2.143,0,0,1-2.4,2.308A2.147,2.147,0,0,1,0-.913" transform="translate(0 4.29)" fill="#fff"/>
    </g>
    <g id="Group_63" data-name="Group 63" transform="translate(276.972 16992.488)">
      <path id="Path_39" data-name="Path 39" d="M-1.048-1.507l-2.9-3.98v3.98h-.976V-7.084h1l2.845,3.871V-7.084H-.1v5.577Z" transform="translate(4.927 7.084)" fill="#fff"/>
    </g>
    <path id="Path_40" data-name="Path 40" d="M291.363,1315.257h.976v5.577h-.976Z" transform="translate(-6.711 15677.232)" fill="#fff"/>
    <g id="Group_66" data-name="Group 66" transform="translate(287.9 16992.488)">
      <path id="Path_41" data-name="Path 41" d="M-.591-1.507-2.776-7.084h1.109L.018-2.569,1.7-7.084h1.11L.628-1.507Z" transform="translate(2.776 7.084)" fill="#fff"/>
    </g>
    <g id="Group_68" data-name="Group 68" transform="translate(295.772 16992.488)">
      <path id="Path_42" data-name="Path 42" d="M0-1.507V-7.084H3.812v.862H.976v1.447H3.754v.861H.976v1.547H3.812v.861Z" transform="translate(0 7.084)" fill="#fff"/>
    </g>
    <g id="Group_70" data-name="Group 70" transform="translate(302.258 16992.49)">
      <path id="Path_43" data-name="Path 43" d="M-.882-.472a.878.878,0,0,0-.951-.886H-3.168V.415h1.335A.878.878,0,0,0-.882-.472M-.965,3.357-2.2,1.276h-.968V3.357h-.977V-2.219H-1.7A1.691,1.691,0,0,1,.12-.472,1.564,1.564,0,0,1-1.2,1.167l1.36,2.19Z" transform="translate(4.144 2.219)" fill="#fff"/>
    </g>
    <g id="Group_72" data-name="Group 72" transform="translate(308.812 16992.406)">
      <path id="Path_44" data-name="Path 44" d="M0-1.317l.542-.752A2.4,2.4,0,0,0,2.3-1.3c.8,0,1.118-.393,1.118-.761,0-1.171-3.245-.443-3.245-2.5,0-.92.809-1.631,2.027-1.631a2.893,2.893,0,0,1,2.086.777l-.559.728a2.261,2.261,0,0,0-1.611-.636c-.576,0-.943.276-.943.694,0,1.037,3.237.393,3.237,2.476,0,.928-.651,1.722-2.152,1.722A2.972,2.972,0,0,1,0-1.317" transform="translate(0 6.192)" fill="#fff"/>
    </g>
    <path id="Path_45" data-name="Path 45" d="M330.926,1315.257h.976v5.577h-.976Z" transform="translate(-15.127 15677.232)" fill="#fff"/>
    <g id="Group_75" data-name="Group 75" transform="translate(319.272 16992.488)">
      <path id="Path_46" data-name="Path 46" d="M-.455-1.507V-6.223H-2.141v-.862H2.206v.862H.521v4.716Z" transform="translate(2.141 7.084)" fill="#fff"/>
    </g>
    <g id="Group_77" data-name="Group 77" transform="translate(325.534 16992.488)">
      <path id="Path_47" data-name="Path 47" d="M-.584-1.507V-3.823L-2.745-7.084h1.118L-.091-4.692,1.427-7.084H2.545L.393-3.823v2.316Z" transform="translate(2.745 7.084)" fill="#fff"/>
    </g>
  </g>
</svg>
